<svg width="20" height="20" viewBox="0 0 20 20" fill="none" xmlns="http://www.w3.org/2000/svg">
<path d="M12.0834 13.75L15.18 14.6817C15.7383 14.8515 16.2434 15.1626 16.6463 15.5848C17.0492 16.007 17.3364 16.526 17.48 17.0917C17.5934 17.5383 17.2075 17.9167 16.745 17.9167H3.25503C2.79253 17.9167 2.40669 17.5383 2.52003 17.0917C2.66367 16.526 2.95083 16.007 3.35375 15.5848C3.75667 15.1626 4.26171 14.8515 4.82003 14.6817L7.91669 13.75V11.9542C6.84586 11.8183 5.85836 11.5808 5.00003 11.2633C5.41669 10.4433 5.83336 9.21332 5.83336 6.34416C5.83336 1.42416 10.4167 1.42416 11.6667 3.06416C14.1667 2.65416 14.1667 4.70416 14.1667 7.16416C14.1667 9.13082 14.7225 10.7167 15 11.2642C14.1417 11.5808 13.1542 11.8183 12.0834 11.9542V13.75Z" stroke="#FF383C" stroke-width="1.5" stroke-linejoin="round"/>
</svg>
