<svg width="20" height="20" viewBox="0 0 20 20" fill="none" xmlns="http://www.w3.org/2000/svg">
<path d="M12.0833 13.75L15.18 14.6816C15.7383 14.8515 16.2434 15.1626 16.6463 15.5848C17.0492 16.007 17.3364 16.526 17.48 17.0916C17.5933 17.5383 17.2075 17.9166 16.745 17.9166H3.255C2.7925 17.9166 2.40666 17.5383 2.52 17.0916C2.66364 16.526 2.9508 16.007 3.35372 15.5848C3.75663 15.1626 4.26167 14.8515 4.82 14.6816L7.91666 13.75V12.135C6.43333 10.9741 5.41666 9.58331 5.41666 6.59748C5.41666 3.60581 7.04583 2.08331 9.57666 2.08331C11.3692 2.08331 12.1158 2.91665 12.1158 2.91665C14.2308 2.91665 14.5833 4.66415 14.5833 6.59748C14.5833 9.58331 13.5667 10.9741 12.0833 12.135V13.75Z" stroke="#466EDF" stroke-width="1.5" stroke-linejoin="round"/>
</svg>
