<svg width="24" height="24" viewBox="0 0 24 24" fill="none" xmlns="http://www.w3.org/2000/svg">
<path d="M14.7158 6.2958C14.6228 6.20207 14.5122 6.12768 14.3904 6.07691C14.2685 6.02614 14.1378 6 14.0058 6C13.8738 6 13.7431 6.02614 13.6212 6.07691C13.4994 6.12768 13.3888 6.20207 13.2958 6.2958L8.2958 11.2958C8.20207 11.3888 8.12768 11.4994 8.07691 11.6212C8.02614 11.7431 8 11.8738 8 12.0058C8 12.1378 8.02614 12.2685 8.07691 12.3904C8.12768 12.5122 8.20207 12.6228 8.2958 12.7158L13.2958 17.7158C13.3888 17.8095 13.4994 17.8839 13.6212 17.9347C13.7431 17.9855 13.8738 18.0116 14.0058 18.0116C14.1378 18.0116 14.2685 17.9855 14.3904 17.9347C14.5122 17.8839 14.6228 17.8095 14.7158 17.7158C14.8095 17.6228 14.8839 17.5122 14.9347 17.3904C14.9855 17.2685 15.0116 17.1378 15.0116 17.0058C15.0116 16.8738 14.9855 16.7431 14.9347 16.6212C14.8839 16.4994 14.8095 16.3888 14.7158 16.2958L10.4158 12.0058L14.7158 7.7158C14.8095 7.62284 14.8839 7.51223 14.9347 7.39038C14.9855 7.26852 15.0116 7.13781 15.0116 7.0058C15.0116 6.87379 14.9855 6.74308 14.9347 6.62122C14.8839 6.49936 14.8095 6.38876 14.7158 6.2958Z" fill="black"/>
</svg>
